inDegrees=yes
name=ik_S52_A01_T02
DataType=double
version=3
OpenSimVersion=4.3-2021-08-27-4bc7ad9
endheader
time	pelvis_tilt	pelvis_list	pelvis_rotation	pelvis_tx	pelvis_ty	pelvis_tz	hip_flexion_r	hip_adduction_r	hip_rotation_r	knee_angle_r	knee_angle_r_beta	ankle_angle_r	subtalar_angle_r	mtp_angle_r	hip_flexion_l	hip_adduction_l	hip_rotation_l	knee_angle_l	knee_angle_l_beta	ankle_angle_l	subtalar_angle_l	mtp_angle_l	lumbar_extension	lumbar_bending	lumbar_rotation	arm_flex_r	arm_add_r	arm_rot_r	elbow_flex_r	pro_sup_r	wrist_flex_r	wrist_dev_r	arm_flex_l	arm_add_l	arm_rot_l	elbow_flex_l	pro_sup_l	wrist_flex_l	wrist_dev_l
25.17999999999955	1.130226512811384	1.662722252684611	97.77516648264096	0	0.9399999999999999	0	10.75313335381828	-4.702128913781033	-12.23434681185079	18.0680676239292	0.3153472695105531	0	0	0	-0.382942961560114	2.988703479074536	-1.12760757942702	4.666220091117961	0.08144090421271823	0	0	0	0	0	0	38.745060011966	-38.745060011966	4.838546622359792	82.74291573816144	85.1614536451924	0	0	38.745060011966	-38.745060011966	4.838546622359792	82.74291573816144	85.16145364516218	0	0
25.19999999999955	0.668861665424006	2.04983206986405	97.76767734916889	0	0.9399999999999999	0	11.8225035560166	-5.576617380663141	-11.45866024984512	20.76194483522487	0.3623642964921055	0	0	0	-0.8221413370415218	3.398829450430294	-1.148482447031669	4.671430852379718	0.08153184915327126	0	0	0	0	0	0	38.74765031029853	-38.74765031029853	4.838680732305229	82.74479160634554	85.16131953525314	0	0	38.74765031029853	-38.74765031029853	4.838680732305229	82.74479160634554	85.16131953522292	0	0
25.21999999999955	0.2951554314739129	2.075115337662425	97.8427156037373	0	0.9399999999999999	0	13.40738815626276	-6.450553442446394	-10.42296678266808	23.45361145427524	0.4093427413605585	0	0	0	-0.8945828345515879	3.796900388079255	-1.05578553242498	4.491317178326715	0.07838827251318248	0	0	0	0	0	0	38.75058375567658	-38.75058375567658	4.838832668729153	82.7469168228109	85.16116759883624	0	0	38.75058375567658	-38.75058375567658	4.838832668729153	82.7469168228109	85.16116759880597	0	0
25.23999999999955	0.1202504056712503	2.025786693320028	97.94150810441823	0	0.9399999999999999	0	14.79743645726453	-7.198534893535469	-10.16863513332384	25.64376518612198	0.4475681351061251	0	0	0	-1.052913340585669	4.311582295943557	-0.9926150267305782	4.23375844018851	0.0738930245153889	0	0	0	0	0	0	38.75298324373233	-38.75298324373233	4.838956683647763	82.74865147903925	85.16104358392333	0	0	38.75298324373233	-38.75298324373233	4.838956683647763	82.74865147903925	85.16104358389308	0	0
25.25999999999955	0.126738441610253	2.16893358301243	97.96015938252593	0	0.9399999999999999	0	15.81892031591036	-7.677649973863159	-9.915207898150921	27.1295459359845	0.4734999011539762	0	0	0	-1.179053647715777	4.326460277038048	-0.8894751540784996	4.270568807368543	0.07453548662154855	0	0	0	0	0	0	38.75520738852402	-38.75520738852402	4.839071697143616	82.75026022861843	85.16092857043273	0	0	38.75520738852402	-38.75520738852402	4.839071697143616	82.75026022861843	85.16092857040255	0	0
25.27999999999955	0.1866578720562915	2.437814858603125	98.05483569129159	0	0.9399999999999999	0	16.56543015068448	-8.018844749746942	-9.534386823797737	27.99222641671982	0.4885565159354951	0	0	0	-1.70973969227652	4.423449725580984	-0.198047895673178	3.825391561289055	0.06676567792250046	0	0	0	0	0	0	38.75719065126182	-38.75719065126182	4.839174188531686	82.75169382313707	85.16082607904946	0	0	38.75719065126182	-38.75719065126182	4.839174188531686	82.75169382313707	85.16082607901927	0	0
25.29999999999955	0.1673160230139013	2.427088830683409	98.07054178346377	0	0.9399999999999999	0	17.4940530364274	-8.354255109747928	-8.988357854694689	28.84837070266035	0.5034990525972932	0	0	0	-1.712756276299845	4.456597259982334	-0.1918369407515199	3.875081711759538	0.0676329346540218	0	0	0	0	0	0	38.75864826895264	-38.75864826895264	4.839249635142194	82.75274913232067	85.1607506324424	0	0	38.75864826895264	-38.75864826895264	4.839249635142194	82.75274913232067	85.16075063241223	0	0
25.31999999999955	0.3373244738033228	3.080946850681746	98.65723212438402	0	0.9399999999999999	0	17.65341408913543	-8.344553301487847	-9.025579248117634	28.12535781383088	0.4908800971528632	0	0	0	-2.383408918050512	4.189467886068863	0.3772136854360977	3.889842888510091	0.06789056578978779	0	0	0	0	0	0	38.76005388326034	-38.76005388326034	4.839322381289778	82.75376666818691	85.16067788629823	0	0	38.76005388326034	-38.76005388326034	4.839322381289778	82.75376666818691	85.16067788626805	0	0
25.33999999999955	0.3550898331160953	3.183993274737858	98.74649912880743	0	0.9399999999999999	0	18.30089221434062	-8.429809994426044	-8.633347534144734	27.65684417562173	0.4827029915756161	0	0	0	-2.673507243486295	4.25246432783744	-0.1934233624395447	3.881712109596797	0.06774865692699908	0	0	0	0	0	0	38.76072159492907	-38.76072159492907	4.839356923501065	82.75424982646453	85.16064334408853	0	0	38.76072159492907	-38.76072159492907	4.839356923501065	82.75424982646453	85.16064334405836	0	0
25.35999999999955	0.3447140426323074	3.377409307492708	99.10308541152733	0	0.9399999999999999	0	18.01576037390734	-8.510584554624975	-8.988700533471528	27.53676511661144	0.4806072166331898	0	0	0	-2.943131161230712	4.199964749265895	-0.2867016293934261	3.923943529257267	0.06848573424786575	0	0	0	0	0	0	38.76152611245481	-38.76152611245481	4.839398509401615	82.75483150728496	85.16060175818986	0	0	38.76152611245481	-38.76152611245481	4.839398509401615	82.75483150728496	85.16060175815974	0	0
25.37999999999955	0.3398787324663262	3.369006373841416	99.0904298626523	0	0.9399999999999999	0	19.24807335007838	-8.595225852482354	-7.944737083265641	27.13350662476606	0.4735690282138613	0	0	0	-2.972179379157503	4.226019565726055	-0.5726003217395039	3.954450183127438	0.0690181758016665	0	0	0	0	0	0	38.76288878947263	-38.76288878947263	4.839468892900682	82.75581599102227	85.16053137469403	0	0	38.76288878947263	-38.76288878947263	4.839468892900682	82.75581599102227	85.16053137466392	0	0
25.39999999999955	0.2170486361689498	3.558376462782948	99.51327575246428	0	0.9399999999999999	0	19.91631590299184	-8.520198570430678	-7.151255392844166	23.09982836367948	0.403168061591781	0	0	0	-3.311782676326986	4.279061435262716	-0.2853708313635409	3.888952870250427	0.06787503204075378	0	0	0	0	0	0	38.76455265150607	-38.76455265150607	4.839566160213946	82.75717674282465	85.16043410738533	0	0	38.76455265150607	-38.76455265150607	4.839566160213946	82.75717674282465	85.16043410735521	0	0
25.41999999999955	0.175135050565876	3.720145699906133	99.69197291586535	0	0.9399999999999999	0	20.05439882706879	-8.374153161598901	-6.863682202641883	23.21430029593738	0.4051659737108013	0	0	0	-3.546672760403183	4.282717357346145	-0.5687144387551546	4.161524780529839	0.0726323093235801	0	0	0	0	0	0	38.76512291515769	-38.76512291515769	4.839595644398011	82.75758915113576	85.1604046232026	0	0	38.76512291515769	-38.76512291515769	4.839595644398011	82.75758915113576	85.16040462317248	0	0
25.43999999999955	0.1716092262812834	3.73818275370365	99.94714896975029	0	0.9399999999999999	0	20.08069765821861	-8.410076057143081	-6.811057443366629	18.92473310840171	0.3302989028027908	0	0	0	-3.548997181594196	4.252128241001941	-0.6492078142682555	4.58806587284036	0.08007685577945177	0	0	0	0	0	0	38.76825404802047	-38.76825404802047	4.839756893545466	82.75984459766848	85.16024337406256	0	0	38.76825404802047	-38.76825404802047	4.839756893545466	82.75984459766848	85.16024337403246	0	0
25.45999999999955	0.2559546012399711	3.691137331263976	100.1872671428569	0	0.9399999999999999	0	20.10796981369386	-8.423732387024362	-7.068565490179529	18.92244499469183	0.3302589676848934	0	0	0	-3.597890519779679	4.174631630994053	-0.255901899128154	4.659888639106073	0.08133039952867877	0	0	0	0	0	0	38.76870106307501	-38.76870106307501	4.83977905483439	82.76015455611375	85.16022121277469	0	0	38.76870106307501	-38.76870106307501	4.83977905483439	82.76015455611375	85.16022121274462	0	0
25.47999999999955	0.3716010473600695	3.655069001822662	100.3881206670474	0	0.9399999999999999	0	20.3564769170467	-8.246896837943032	-6.791392564059351	16.77519067495028	0.2927823099277322	0	0	0	-3.643576415888839	4.056438823271532	-0.05254305972161957	4.904276191148841	0.08559576696271406	0	0	0	0	0	0	38.76991501401608	-38.76991501401608	4.839841584026166	82.76102917333488	85.16015868358583	0	0	38.76991501401608	-38.76991501401608	4.839841584026166	82.76102917333488	85.16015868355576	0	0
25.49999999999955	0.4607613927809785	3.681243821073966	100.5580511254345	0	0.9399999999999999	0	20.33451338618985	-8.107942539904249	-6.663158739765708	14.5613009901588	0.2541426456521814	0	0	0	-3.759939600608095	3.925839279742953	0.04808784761091178	5.023996185668698	0.08768527504755512	0	0	0	0	0	0	38.77113546105181	-38.77113546105181	4.839904286675701	82.76190621287594	85.16009598093915	0	0	38.77113546105181	-38.77113546105181	4.839904286675701	82.76190621287594	85.16009598090911	0	0
25.51999999999954	0.5058733979686916	3.76771289272659	100.6608648917452	0	0.9399999999999999	0	20.26367455587126	-8.018890900949373	-6.582336507900713	14.53209605958485	0.2536329234558496	0	0	0	-4.177102184083537	3.854248502158597	0.6277349993958884	4.820052539197459	0.0841257869281087	0	0	0	0	0	0	38.7719523806395	-38.7719523806395	4.839946207139572	82.762492564921	85.16005406047724	0	0	38.7719523806395	-38.7719523806395	4.839946207139572	82.762492564921	85.16005406044719	0	0
